# xmcd
#
# Track frame offsets:
#	150
#	24885
#	41412
#	53877
#	70320
#	89394
#	108276
#	126502
#	145731
#	160823
#	177283
#	196191
#	212484
#	223246
#	236644
#	249735
#	264433
#	279986
#	294350
#	309172
#
# Disc length: 4397 seconds
#
# Revision: 0
# Processed by: cddbd v1.5.2PL0 Copyright (c) Steve Scherf et al.
# Submitted via: audiograbber 1.83.01
#
DISCID=1f112b14
DTITLE=Various Artist - Merry Xmas! CD3
DYEAR=1900
DGENRE=
TTITLE0=Frankie Goes To Hollywood - The Power Of Love
TTITLE1=The Pretenders - 2000 Miles
TTITLE2=Shakin' Stevens - Blue Christmas
TTITLE3=Steps - Merry Xmas Everybody
TTITLE4=Westlife - I Have A Dream
TTITLE5=Backstreet Boys - Christmas Time
TTITLE6=Nsync - I Don't Wanna Spend One More Christmas Without You
TTITLE7=Britney Spears - My Only Wish (This Year)
TTITLE8=The Wombles - Wombling Merry Christmas
TTITLE9=Bo Selecta - Proper Crimbo
TTITLE10=Status Quo - It's Christmas Time
TTITLE11=T-Rex - Christmas Bop
TTITLE12=Air Supply - Sleigh Ride
TTITLE13=Harry Belafonte - Mary's Boy Child
TTITLE14=G4 - Silent Night
TTITLE15=Angelis - Pie Jesu
TTITLE16=The Rainbow Collections - Santa's Little Helpers
TTITLE17=Spike Jones And His City Slickers - All I Want For Christmas (Is My Tw
TTITLE17=o Front Teeth)
TTITLE18=The Great British Barbershop Boys - Lonely This Christmas
TTITLE19=The Priests - Ave Maria
EXTD=(p)2010 Sony Music - Universal Music TV
EXTT0=
EXTT1=
EXTT2=
EXTT3=
EXTT4=
EXTT5=
EXTT6=
EXTT7=
EXTT8=
EXTT9=
EXTT10=
EXTT11=
EXTT12=
EXTT13=
EXTT14=
EXTT15=
EXTT16=
EXTT17=
EXTT18=
EXTT19=
PLAYORDER=
